<?xml version="1.0" standalone="no"?>
<!DOCTYPE svg PUBLIC "-//W3C//DTD SVG 20010904//EN"
 "http://www.w3.org/TR/2001/REC-SVG-20010904/DTD/svg10.dtd">
<svg version="1.0" xmlns="http://www.w3.org/2000/svg"
 width="7578.000000pt" height="2812.000000pt" viewBox="0 0 7578.000000 2812.000000"
 preserveAspectRatio="xMidYMid meet">

<g transform="translate(0.000000,2812.000000) scale(0.100000,-0.100000)"
fill="#000000" stroke="none">
<path d="M17360 28107 c3 -2 57 -39 120 -82 622 -420 1096 -946 1390 -1540
141 -284 214 -496 270 -775 46 -229 55 -333 55 -605 -1 -208 -5 -276 -24 -405
-68 -456 -235 -896 -486 -1281 l-63 -96 -433 -6 c-446 -6 -581 -13 -969 -47
-1190 -107 -2368 -390 -3475 -835 -266 -107 -538 -225 -531 -232 2 -2 46 7 97
21 156 42 483 113 715 156 1303 237 2742 272 4579 109 126 -11 231 -21 232
-23 2 -2 -31 -6 -74 -10 -116 -10 -544 -72 -738 -107 -1584 -284 -3065 -916
-4330 -1848 -82 -60 -255 -183 -384 -271 -308 -214 -560 -392 -1056 -749 -670
-482 -973 -688 -1340 -909 -448 -269 -1025 -568 -1445 -747 -134 -58 -458
-185 -470 -185 -3 0 30 107 73 237 394 1189 626 2453 688 3756 15 327 7 1185
-15 1477 -53 709 -152 1360 -300 1971 -57 234 -122 469 -133 480 -4 4 -91 42
-193 83 -1852 748 -4052 1232 -6275 1381 -538 36 -691 40 -1440 40 -703 0
-1160 -12 -1338 -34 -51 -6 -49 -7 83 -30 628 -110 1231 -351 1638 -655 388
-290 621 -632 698 -1022 26 -130 24 -357 -4 -490 -100 -471 -417 -897 -952
-1279 -52 -38 -87 -65 -77 -61 54 18 323 88 444 115 336 73 631 105 968 105
257 0 388 -11 610 -49 898 -155 1494 -673 1627 -1415 26 -149 28 -425 4 -581
-59 -382 -225 -792 -466 -1154 -64 -97 -68 -104 -44 -84 397 332 823 564 1220
665 218 55 330 67 559 61 209 -5 311 -22 475 -77 237 -79 491 -250 662 -446
529 -605 683 -1627 412 -2744 -141 -586 -416 -1206 -760 -1712 -40 -60 -70
-108 -68 -108 3 0 47 37 97 83 229 206 547 453 837 649 921 624 2000 1092
3073 1332 115 26 213 46 218 44 5 -2 -36 -63 -91 -137 -955 -1278 -1722 -3308
-1950 -5161 -93 -759 -93 -1566 1 -2375 224 -1946 985 -3806 2192 -5360 627
-806 1422 -1569 2252 -2161 330 -236 845 -558 1370 -857 1362 -776 2773 -1274
4070 -1436 363 -46 516 -55 925 -55 451 -1 584 10 965 74 438 74 757 147 940
215 797 296 1754 1130 2627 2290 552 733 900 1419 1032 2035 65 305 59 -57 66
4005 5 2510 10 3755 18 3915 40 820 68 1181 133 1690 112 880 273 1455 571
2042 150 297 314 531 518 742 204 210 390 347 635 467 300 146 589 214 965
226 380 12 685 -49 995 -201 521 -255 859 -676 988 -1228 l22 -93 3 -4745 c3
-5189 7 -4829 -54 -5021 -53 -168 -162 -342 -282 -449 -87 -78 -217 -162 -317
-204 -178 -74 -533 -169 -995 -266 -320 -67 -498 -110 -656 -161 -229 -73
-441 -176 -551 -266 l-43 -34 0 -240 0 -239 243 0 243 0 59 66 c221 250 607
431 1095 513 294 50 716 72 975 52 188 -15 508 -60 752 -107 308 -59 445 -82
698 -119 367 -53 517 -65 809 -65 744 0 1545 104 2239 291 l37 10 0 329 0 330
-244 0 c-215 0 -245 -2 -257 -17 -31 -37 -279 -260 -352 -315 -98 -75 -226
-144 -295 -158 -65 -15 -346 1 -512 29 -644 105 -1001 440 -1085 1018 -14 97
-15 495 -12 3838 l3 3730 21 125 c67 395 163 687 336 1024 200 389 439 709
797 1066 726 727 1490 1112 2346 1181 195 16 496 6 677 -21 1156 -174 1802
-1045 1952 -2630 93 -986 -7 -1911 -314 -2900 -144 -467 -223 -660 -484 -1195
-118 -242 -294 -609 -392 -815 -97 -206 -277 -580 -400 -830 -261 -532 -361
-762 -488 -1121 -139 -391 -232 -758 -284 -1119 -25 -179 -25 -683 0 -855 52
-347 134 -589 271 -794 242 -363 625 -540 1171 -541 723 -1 1327 233 1824 706
l114 109 101 17 c185 32 265 21 370 -51 98 -68 216 -212 310 -383 l37 -66 87
-32 c121 -44 192 -59 303 -67 286 -18 408 117 409 454 0 428 -131 762 -365
928 -157 111 -347 165 -582 165 -211 0 -405 -55 -688 -195 -280 -139 -486
-275 -950 -630 -137 -105 -378 -287 -535 -405 l-284 -214 -91 12 c-225 28
-432 139 -631 337 -208 208 -355 475 -410 744 -24 123 -15 381 20 546 68 323
181 625 390 1045 227 454 296 567 1758 2870 504 795 484 761 623 1040 405 809
653 1558 744 2245 61 458 52 992 -25 1495 -151 991 -576 1891 -1179 2496 -450
452 -931 694 -1585 797 -118 19 -177 21 -470 21 -290 0 -357 -3 -499 -22 -399
-54 -699 -141 -994 -288 -385 -192 -654 -418 -1343 -1129 -473 -488 -817 -786
-1159 -1007 -99 -64 -258 -158 -267 -158 -2 0 -65 127 -138 283 -281 593 -624
1259 -777 1511 -255 419 -725 760 -1229 891 -285 74 -665 106 -877 74 -463
-69 -1117 -405 -1892 -969 -220 -160 -861 -669 -1431 -1135 -609 -499 -1266
-1022 -1579 -1257 -706 -530 -1280 -859 -1682 -963 -186 -49 -311 -57 -862
-53 l-501 3 0 -337 0 -338 68 0 c154 1 588 21 732 35 309 29 422 57 640 155
195 87 526 286 740 444 l65 48 100 -6 c434 -25 686 -284 750 -773 33 -253 15
-447 -75 -798 -27 -108 -60 -239 -72 -293 l-22 -97 -6 -3785 c-5 -2746 -10
-3825 -18 -3930 -67 -834 -200 -1454 -440 -2055 -280 -702 -639 -1230 -1073
-1579 -452 -363 -886 -518 -1753 -626 -133 -16 -299 -34 -370 -40 -156 -12
-753 -13 -760 -1 -3 4 -56 11 -118 15 -320 20 -720 72 -1058 137 -2527 493
-4776 2112 -6167 4439 -785 1312 -1271 2819 -1408 4360 -50 572 -50 1240 1
1805 146 1625 685 3168 1567 4490 1000 1498 2385 2626 4007 3262 697 274 1540
477 2340 564 249 27 783 37 1022 20 690 -51 1359 -226 2199 -579 192 -80 227
-87 522 -103 592 -33 1798 55 1889 137 25 24 24 152 -2 262 -87 364 -446 971
-932 1573 -47 59 -88 111 -92 117 -3 6 38 -5 91 -25 1211 -431 2282 -973 3228
-1633 61 -42 117 -81 125 -85 8 -5 -46 50 -120 121 -541 523 -1137 1000 -1770
1419 -288 190 -522 331 -934 562 l-68 38 -80 240 c-364 1099 -935 2083 -1747
3010 -156 179 -642 661 -833 827 -1012 880 -2175 1539 -3464 1961 -250 83
-700 210 -684 194z"/>
<path d="M74690 19077 c-72 -17 -110 -38 -148 -82 -69 -78 -95 -172 -95 -340
0 -332 159 -590 470 -765 290 -162 416 -305 503 -570 50 -154 63 -281 57 -550
-11 -415 -72 -759 -208 -1157 -237 -695 -652 -1335 -1498 -2303 -79 -91 -149
-170 -155 -177 -8 -9 -32 -3 -101 28 -1068 480 -1887 745 -2410 778 -250 16
-609 -17 -860 -78 -788 -194 -1373 -726 -1623 -1477 -100 -299 -142 -594 -142
-989 0 -570 73 -1023 208 -1291 74 -147 305 -419 786 -927 153 -162 167 -179
154 -195 -8 -9 -302 -359 -653 -777 -352 -418 -751 -892 -887 -1054 -136 -162
-248 -297 -248 -300 0 -3 59 -37 132 -76 200 -106 560 -307 993 -555 295 -169
434 -242 570 -301 402 -172 779 -279 1136 -324 143 -17 485 -20 640 -5 748 74
1383 366 1996 919 254 228 483 531 619 816 147 312 219 612 231 970 10 295
-25 501 -133 794 -102 275 -333 668 -539 916 -141 169 -512 568 -993 1069
l-172 180 727 721 c401 397 789 789 864 871 583 637 963 1172 1245 1749 117
241 173 377 256 629 189 575 305 1075 348 1495 13 133 13 435 -1 559 -25 235
-93 481 -189 691 -40 88 -50 122 -60 201 -49 416 -190 700 -413 833 -106 64
-298 98 -407 74z m-4200 -5832 c338 -51 694 -252 1020 -575 315 -313 481 -631
480 -924 -1 -240 -153 -481 -470 -746 -266 -221 -475 -339 -684 -385 -113 -25
-359 -16 -506 18 -467 109 -871 409 -1058 782 -89 178 -126 350 -119 545 4
116 9 148 35 230 61 186 174 374 357 592 205 246 387 388 576 447 35 11 75 22
89 24 57 10 191 6 280 -8z m1130 -3665 c176 -22 359 -93 517 -202 164 -113
352 -317 506 -550 171 -259 265 -485 324 -783 22 -113 25 -522 5 -655 -75
-491 -280 -690 -792 -766 -165 -25 -507 -25 -654 -1 -512 87 -1066 404 -1444
826 -99 112 -228 282 -299 396 -85 138 -135 234 -127 247 5 7 183 220 397 473
403 475 500 577 689 720 315 239 588 330 878 295z"/>
<path d="M50560 13240 c-704 -125 -1383 -681 -2057 -1686 -541 -806 -863
-1555 -963 -2237 -65 -438 -38 -1025 70 -1558 86 -419 251 -874 442 -1214 304
-541 693 -854 1188 -956 124 -26 369 -36 481 -20 434 62 1098 366 1896 869
l81 51 7 -27 c20 -86 148 -487 212 -667 290 -816 570 -1334 1113 -2060 175
-234 423 -551 639 -815 l143 -175 -7 -115 c-23 -415 -156 -733 -414 -990 -257
-257 -591 -412 -994 -465 -152 -19 -466 -20 -669 0 -606 58 -1304 219 -2368
545 -1015 311 -1633 456 -2280 536 -182 22 -680 30 -892 15 -1072 -79 -1780
-430 -2166 -1073 -51 -85 -105 -188 -99 -188 2 0 42 23 88 51 287 173 628 311
914 368 303 60 673 54 1140 -20 450 -71 1186 -255 1780 -445 736 -234 1036
-321 1419 -410 573 -132 983 -182 1396 -170 980 28 1813 281 2565 781 594 396
977 895 1140 1490 65 236 103 555 91 760 -19 352 -193 766 -613 1463 -373 618
-548 1016 -614 1392 -16 93 -22 189 -29 510 -15 657 -42 1079 -120 1890 -82
850 -119 1478 -122 2040 -2 253 1 300 20 415 41 236 100 481 189 778 19 65 34
119 32 121 -2 2 -60 30 -129 63 -217 105 -547 314 -959 606 -452 321 -787 491
-1083 551 -107 22 -332 20 -468 -4z m-390 -1109 c188 -80 598 -336 1178 -734
l262 -180 0 -1796 c0 -1086 -4 -1840 -10 -1906 -13 -148 -40 -250 -99 -370
-84 -170 -222 -319 -406 -437 -194 -125 -375 -186 -622 -209 -296 -27 -535 53
-799 265 -444 357 -904 1197 -1019 1859 -80 467 -17 1059 190 1772 164 565
359 1036 545 1318 128 194 301 352 450 413 126 51 218 52 330 5z"/>
<path d="M44669 13035 c-498 -68 -1035 -393 -1584 -957 -735 -755 -1418 -1822
-1680 -2624 -51 -156 -102 -367 -127 -529 -41 -268 -26 -684 38 -1035 140
-768 513 -1512 984 -1964 322 -309 667 -470 1081 -506 202 -17 330 8 654 127
310 115 773 329 1328 615 170 88 310 158 311 156 2 -2 15 -68 29 -148 31 -173
80 -344 140 -495 l44 -110 641 -3 641 -2 -45 80 c-154 280 -291 596 -358 828
-52 180 -67 279 -76 487 -5 110 -9 1029 -9 2043 l-1 1842 39 118 c49 144 132
331 268 602 57 113 103 208 103 211 0 4 -44 24 -97 45 -765 294 -1415 664
-2000 1135 -121 98 -123 99 -175 98 -29 -1 -96 -7 -149 -14z m-311 -1143 c326
-249 956 -720 1110 -831 l102 -74 0 -2007 0 -2006 -237 -67 c-563 -158 -974
-241 -1363 -277 -296 -26 -414 -8 -557 87 -183 121 -351 347 -528 708 -236
480 -422 1070 -480 1518 -19 148 -19 411 0 542 56 393 197 793 499 1410 205
419 333 630 506 838 193 231 424 373 613 376 48 1 51 -1 335 -217z"/>
<path d="M55835 12818 c-631 -542 -1216 -1009 -1483 -1184 -2 -1 31 -73 74
-160 202 -419 307 -676 372 -919 l27 -100 3 -1795 c3 -2015 8 -1867 -73 -2107
-82 -242 -230 -539 -449 -903 -61 -101 -112 -188 -114 -192 -2 -4 507 -8 1132
-8 625 0 1136 2 1136 5 0 2 -29 48 -63 102 -158 244 -290 501 -351 683 -70
210 -66 58 -66 2360 0 1367 4 2113 10 2179 51 496 377 923 892 1171 139 67
237 101 382 132 140 31 486 33 616 4 184 -40 384 -130 543 -243 113 -81 297
-266 398 -403 123 -166 200 -292 294 -485 232 -475 362 -927 422 -1467 24
-216 24 -670 -1 -868 -82 -676 -315 -1350 -718 -2078 -152 -275 -263 -447
-474 -732 -235 -318 -472 -644 -804 -1105 -123 -170 -330 -454 -459 -630 -448
-611 -498 -681 -608 -845 -410 -615 -643 -1113 -734 -1567 -29 -147 -36 -392
-15 -528 34 -223 119 -429 250 -602 258 -342 607 -522 1021 -526 69 0 144 5
175 13 170 40 260 152 260 323 0 53 -3 61 -41 102 -79 85 -296 206 -595 330
-88 36 -183 82 -212 102 -136 93 -225 245 -263 453 -15 84 -15 341 0 450 66
465 298 993 706 1610 160 241 272 394 584 795 237 304 416 538 1081 1410 134
176 360 469 501 650 323 416 476 658 708 1123 407 814 609 1572 628 2352 20
844 -161 1567 -561 2237 -118 198 -223 333 -380 488 -256 256 -517 398 -851
465 -149 31 -399 37 -540 15 -254 -40 -536 -146 -830 -313 -44 -25 -222 -139
-395 -252 -173 -114 -391 -253 -485 -310 -169 -102 -425 -234 -477 -246 l-28
-6 -2 570 -3 570 -140 -120z"/>
<path d="M62675 12712 c-331 -210 -511 -327 -740 -485 -140 -97 -546 -384
-583 -413 -2 -1 10 -29 27 -62 238 -472 358 -1288 322 -2206 -6 -171 -19 -424
-28 -561 -20 -304 -23 -1170 -4 -1430 40 -576 117 -994 248 -1340 216 -571
552 -893 1033 -990 109 -22 344 -30 470 -16 573 66 1074 381 1550 976 52 66
118 153 145 192 56 81 45 76 218 89 l87 6 0 -60 c0 -243 132 -562 342 -829
l50 -63 564 0 564 0 0 3674 0 3675 -362 -238 c-599 -392 -1176 -757 -1355
-857 -29 -16 -53 -32 -53 -35 0 -3 31 -57 69 -120 242 -403 340 -636 390 -924
41 -236 46 -330 46 -900 0 -560 -6 -712 -46 -1115 -140 -1439 -548 -2257
-1234 -2473 -268 -84 -618 -67 -850 42 -215 101 -373 259 -491 494 -159 314
-230 671 -241 1203 -6 302 -3 350 57 779 21 154 44 336 50 405 8 87 10 671 8
1933 l-3 1807 -250 -158z"/>
</g>
</svg>
